<svg width="600" height="400" viewBox="0 0 600 400" xmlns="http://www.w3.org/2000/svg">
  <rect width="600" height="400" fill="#1a1a2e" />
  
  <!-- Header -->
  <rect x="0" y="0" width="600" height="60" fill="#0f0f23" />
  <rect x="20" y="20" width="120" height="20" rx="4" fill="#6366f1" />
  
  <!-- Stats cards -->
  <rect x="20" y="80" width="130" height="80" rx="8" fill="#16213e" stroke="#4f46e5" stroke-width="1" />
  <rect x="160" y="80" width="130" height="80" rx="8" fill="#16213e" stroke="#10b981" stroke-width="1" />
  <rect x="300" y="80" width="130" height="80" rx="8" fill="#16213e" stroke="#f59e0b" stroke-width="1" />
  <rect x="440" y="80" width="130" height="80" rx="8" fill="#16213e" stroke="#ef4444" stroke-width="1" />
  
  <!-- Chart area -->
  <rect x="20" y="180" width="380" height="200" rx="8" fill="#16213e" stroke="rgba(255,255,255,0.1)" stroke-width="1" />
  <polyline points="40,340 80,300 120,320 160,280 200,290 240,260 280,270 320,240 360,250" 
            fill="none" stroke="#6366f1" stroke-width="2" />
  <circle cx="40" cy="340" r="3" fill="#6366f1" />
  <circle cx="80" cy="300" r="3" fill="#6366f1" />
  <circle cx="120" cy="320" r="3" fill="#6366f1" />
  <circle cx="160" cy="280" r="3" fill="#6366f1" />
  <circle cx="200" cy="290" r="3" fill="#6366f1" />
  <circle cx="240" cy="260" r="3" fill="#6366f1" />
  <circle cx="280" cy="270" r="3" fill="#6366f1" />
  <circle cx="320" cy="240" r="3" fill="#6366f1" />
  <circle cx="360" cy="250" r="3" fill="#6366f1" />
  
  <!-- Sidebar -->
  <rect x="420" y="180" width="160" height="200" rx="8" fill="#16213e" stroke="rgba(255,255,255,0.1)" stroke-width="1" />
  <rect x="430" y="190" width="140" height="20" rx="4" fill="#4f46e5" />
  <rect x="430" y="220" width="100" height="15" rx="3" fill="#374151" />
  <rect x="430" y="245" width="120" height="15" rx="3" fill="#374151" />
  <rect x="430" y="270" width="80" height="15" rx="3" fill="#374151" />
  <rect x="430" y="295" width="110" height="15" rx="3" fill="#374151" />
  <rect x="430" y="320" width="90" height="15" rx="3" fill="#374151" />
  <rect x="430" y="345" width="130" height="15" rx="3" fill="#374151" />
  
  <!-- Decorative elements -->
  <circle cx="500" cy="50" r="20" fill="#6366f1" opacity="0.2" />
  <circle cx="550" cy="30" r="15" fill="#8b5cf6" opacity="0.2" />
  <circle cx="580" cy="350" r="25" fill="#10b981" opacity="0.2" />
</svg>